HIERARCHY
ROOT hip
{
	OFFSET 0.000000 0.000000 0.000000 
	CHANNELS 6 Xposition Yposition Zposition Xrotation Zrotation Yrotation
	JOINT abdomen
	{
		OFFSET 0.000000 3.402643 0.000000 
		CHANNELS 3 Xrotation Zrotation Yrotation
		JOINT chest
		{
			OFFSET 0.000000 8.438565 -0.680529 
			CHANNELS 3 Xrotation Zrotation Yrotation
			JOINT neck
			{
				OFFSET 0.000000 10.207942 -0.272212 
				CHANNELS 3 Xrotation Zrotation Yrotation
				JOINT head
				{
					OFFSET 0.000000 3.130431 0.000000 
					CHANNELS 3 Xrotation Zrotation Yrotation
					End Site
					{
						OFFSET 0.000000 3.130435 0.000000 
					}
				}
			}
			JOINT lCollar
			{
				OFFSET 3.470700 6.669187 -0.816635 
				CHANNELS 3 Yrotation Zrotation Xrotation
				JOINT lShldr
				{
					OFFSET 3.198488 0.000000 0.000000 
					CHANNELS 3 Zrotation Yrotation Xrotation
					JOINT lForeArm
					{
						OFFSET 10.139888 0.000000 0.000000 
						CHANNELS 3 Yrotation Zrotation Xrotation
						JOINT lHand
						{
							OFFSET 8.370511 0.000000 0.000000 
							CHANNELS 3 Zrotation Yrotation Xrotation
							End Site
							{
								OFFSET 4.083176 0.000000 0.000000 
							}
						}
					}
				}
			}
			JOINT rCollar
			{
				OFFSET -3.470700 6.669187 -0.816635 
				CHANNELS 3 Yrotation Zrotation Xrotation
				JOINT rShldr
				{
					OFFSET -3.198488 0.000000 0.000000 
					CHANNELS 3 Zrotation Yrotation Xrotation
					JOINT rForeArm
					{
						OFFSET -10.139888 0.000000 0.000000 
						CHANNELS 3 Yrotation Zrotation Xrotation
						JOINT rHand
						{
							OFFSET -8.370511 0.000000 0.000000 
							CHANNELS 3 Zrotation Yrotation Xrotation
							End Site
							{
								OFFSET -4.083176 0.000000 0.000000 
							}
						}
					}
				}
			}
		}
	}
	JOINT lThigh
	{
		OFFSET 5.308129 -1.633274 1.361059 
		CHANNELS 3 Xrotation Zrotation Yrotation
		JOINT lShin
		{
			OFFSET -2.041588 -20.007561 0.000000 
			CHANNELS 3 Xrotation Zrotation Yrotation
			JOINT lFoot
			{
				OFFSET 0.000000 -19.190928 -1.224953 
				CHANNELS 3 Xrotation Yrotation Zrotation
				End Site
				{
					OFFSET 0.000000 -2.449906 4.627600 
				}
			}
		}
	}
	JOINT rThigh
	{
		OFFSET -5.308129 -1.633274 1.361059 
		CHANNELS 3 Xrotation Zrotation Yrotation
		JOINT rShin
		{
			OFFSET 2.041588 -20.007561 0.000000 
			CHANNELS 3 Xrotation Zrotation Yrotation
			JOINT rFoot
			{
				OFFSET 0.000000 -19.190928 -1.224953 
				CHANNELS 3 Xrotation Yrotation Zrotation
				End Site
				{
					OFFSET 0.000000 -2.449906 4.627600 
				}
			}
		}
	}
}
MOTION
Frames: 13
Frame Time: 0.033333
-27.355371 48.329224 65.726471 2.215192 4.918215 120.053429 0.000000 0.000000 0.000000 19.509356 -2.356634 5.971877 20.007879 1.179147 -0.164738 25.919859 2.069795 -2.860426 7.077696 -11.423704 18.653282 -52.278198 -14.556064 23.909569 -44.936081 -9.240884 24.433422 6.737319 -1.273828 -3.698445 4.642541 20.336130 18.825756 43.710026 -0.086435 14.290237 55.254929 4.904721 17.454094 -6.819474 0.299471 -3.666301 -7.835993 4.810772 1.278539 4.666113 -6.210636 -2.978752 6.506116 -0.328220 -5.511477 11.009922 -4.744272 -7.049290 22.870193 4.724870 8.799768 -14.205677 0.312331 -2.531578 
-26.613705 48.475956 64.815620 2.048928 5.035858 118.978920 0.000000 0.000000 0.000000 19.488367 -2.872619 6.073593 20.097174 0.703136 0.037899 25.678213 1.278940 -2.771147 6.931859 -11.109147 18.639872 -52.807117 -16.192522 24.160942 -44.793015 -9.080582 23.255287 6.533101 -0.700108 -3.669322 4.706715 19.587046 18.859331 43.966763 -0.680064 15.317440 54.682072 5.307833 17.510334 -5.089900 -0.145083 -3.603107 -6.701724 4.916207 2.029941 5.554121 -6.816015 -3.039152 5.061403 -0.199783 -4.297712 10.139212 -5.484689 -7.317776 26.486732 4.310228 9.101510 -11.796327 0.190995 -1.849882 
-25.847900 48.612621 63.887527 1.920945 4.850801 117.916649 0.000000 0.000000 0.000000 19.319115 -3.235143 5.624022 19.798983 -0.716420 1.018024 25.302223 1.880174 -2.199742 7.428352 -12.860988 18.669569 -51.162102 -17.559649 23.834656 -45.438717 -9.006062 22.696505 6.371002 -0.466125 -3.651551 5.032414 17.405373 18.595692 45.338810 -0.321374 17.022457 53.186050 5.885753 18.363903 -6.145403 0.901787 -3.667354 -5.791181 4.638860 2.461608 6.194491 -7.172470 -1.935631 3.617716 -0.105933 -3.039664 8.319407 -6.601673 -7.659644 30.666231 3.922894 10.902547 -8.662274 0.142820 -1.943950 
-25.075914 48.668243 63.022861 1.765419 5.319754 116.765488 0.000000 0.000000 0.000000 19.396553 -3.657523 5.978452 19.949045 -0.830822 1.481503 24.426619 1.061711 -2.003682 7.214160 -12.147042 18.680794 -51.865608 -19.349037 23.977341 -45.498653 -8.708154 22.030495 5.932630 -0.191527 -3.628648 5.227344 17.393370 18.731571 45.354660 -1.237672 17.484652 52.956715 5.990958 19.154068 -6.214347 0.760246 -3.671455 -4.946832 4.604946 2.838129 8.110495 -7.205803 -1.632989 2.096056 -0.042569 -1.830436 6.233232 -7.053783 -7.410037 35.739613 3.045244 10.647943 -4.478828 0.033950 -0.960941 
-24.296080 48.701717 62.189274 1.560402 5.681500 116.219177 0.000000 0.000000 0.000000 19.417372 -3.712345 5.410886 19.814125 -1.610456 1.785959 23.927946 0.951266 -1.575152 7.194673 -12.956686 18.801922 -50.901161 -20.499239 23.486717 -46.731853 -8.073796 22.395325 4.623123 -1.411574 -3.621626 4.926331 17.031969 18.730261 45.374599 -1.460007 17.924164 52.414089 6.306986 19.610277 -7.138056 0.826387 -3.701151 -4.183467 4.543670 3.215630 9.850101 -7.283442 -1.628809 0.772162 -0.029970 -0.792474 3.894833 -7.234377 -6.997485 40.325237 2.215525 9.452735 0.830310 0.017249 0.589688 
-23.612803 48.773071 61.481537 1.296647 6.199597 116.214508 0.000000 0.000000 0.000000 19.669436 -3.605362 4.873918 19.959816 -1.732117 1.819699 23.018101 0.482369 -1.213832 6.811604 -13.061358 19.030167 -50.514187 -22.231005 23.066935 -47.551525 -7.465189 21.689802 4.911993 -0.884142 -3.609508 4.406310 17.096180 18.932901 45.614109 -1.873374 17.399918 51.862076 6.509459 19.967072 -6.796416 1.279703 -3.711129 -3.212137 4.676507 3.643023 10.836434 -7.361791 -1.793657 -0.251711 -0.010751 0.121335 1.278513 -7.117330 -6.684833 44.111767 1.473406 6.264035 7.370406 0.263769 3.955103 
-22.849413 48.797863 60.795815 0.826236 6.864528 116.241798 0.000000 0.000000 0.000000 19.818230 -3.243544 4.437002 19.924950 -1.809381 1.861098 22.314564 0.227696 -0.989331 6.363870 -12.929304 19.134714 -50.437851 -23.583334 22.441397 -49.001701 -6.545625 20.939796 4.576952 -0.387037 -3.592270 4.067296 16.948364 19.016712 46.173920 -2.254902 16.941639 50.971779 6.842554 19.955917 -5.643213 1.149923 -3.658807 -2.352963 4.920343 3.962960 12.299897 -7.158854 -2.003934 -1.874914 -0.045656 1.768473 -0.459027 -7.023235 -6.501823 45.410694 0.945459 2.904446 9.857888 0.691280 7.840127 
-22.118752 48.832218 60.124699 0.571191 7.421510 116.549034 0.000000 0.000000 0.000000 19.891058 -2.966462 3.956502 19.980116 -1.571459 1.501743 21.758108 -0.380375 -0.772554 5.704094 -12.571682 19.152527 -50.742676 -24.589928 21.882441 -50.349384 -5.591559 21.589975 4.562645 -0.926167 -3.599798 3.497606 17.219572 19.075148 46.219028 -3.005193 17.079418 50.667240 7.235547 18.780672 -6.247655 0.523176 -3.664137 -1.180621 5.042353 4.282399 13.140975 -7.130592 -2.660156 -3.314780 -0.106264 3.314246 -2.440046 -6.537024 -6.907055 47.074219 0.966541 -1.001375 7.727458 0.448719 6.673120 
-21.344084 48.883183 59.450054 0.433908 7.997819 116.574814 0.000000 0.000000 0.000000 20.005030 -2.780736 3.743751 19.919342 -1.417783 1.503472 21.718975 -0.332881 -0.575661 5.428222 -12.369804 19.227875 -51.168709 -25.809771 21.847906 -51.360783 -4.922175 20.609177 6.249820 -0.258793 -3.635847 3.180490 17.180901 19.173374 46.667660 -3.789433 17.153551 49.823128 7.529674 19.582777 -5.930218 0.602718 -3.646729 0.565668 5.004821 4.510145 13.121897 -7.041946 -2.620476 -4.484796 -0.199267 4.632954 -3.729940 -6.033930 -6.599421 46.231422 0.946472 -3.229533 4.498214 0.226729 6.229239 
-20.574614 48.876015 58.814796 0.286208 8.310444 116.780624 0.000000 0.000000 0.000000 19.905684 -2.690635 3.859836 19.659668 -0.699094 1.074816 22.042440 -0.826349 -0.695617 4.732584 -10.848739 19.012402 -53.017330 -26.933590 21.969376 -52.063469 -4.152968 21.112930 5.551782 -0.646988 -3.626004 2.915815 18.269371 19.143559 46.304947 -5.494517 16.925251 49.906704 7.729497 18.748697 -5.720040 0.528374 -3.645207 1.774060 4.943660 4.750105 13.648057 -7.041649 -2.819188 -5.843402 -0.330880 6.138100 -5.300042 -5.572601 -6.103906 44.076992 1.532687 -2.034151 2.697852 0.125852 5.944333 
-19.790775 48.844929 58.198040 0.217250 8.535096 117.152473 0.000000 0.000000 0.000000 19.843588 -2.480359 3.616947 19.311441 -0.536773 0.878341 22.188232 -0.588531 -0.679414 4.508723 -10.697583 18.943010 -53.060848 -27.688297 21.964481 -53.215088 -3.641412 20.766842 4.724388 -1.160431 -3.617959 2.556171 18.238655 19.079206 46.769684 -6.640100 16.899542 49.580284 7.831435 19.922987 -4.981401 0.595875 -3.614144 2.778979 4.848262 4.744923 14.478263 -6.908111 -3.199232 -7.413855 -0.438932 6.577361 -5.867041 -4.802685 -4.780366 38.765678 1.826147 1.042873 -0.772623 -0.052100 4.356598 
-19.073217 48.848194 57.621929 0.365412 8.574047 118.541664 0.000000 0.000000 0.000000 19.828259 -2.094679 2.633376 19.234907 -0.498305 0.095935 22.002268 -0.389493 -0.620189 3.808399 -11.051804 18.936230 -52.408516 -27.993507 21.995020 -54.200947 -3.299602 20.748259 5.023869 -1.405368 -3.634187 1.827401 18.375835 18.997179 46.844189 -7.633641 17.024998 49.263309 8.130401 19.458939 -4.852013 0.408499 -3.607470 3.651140 4.735800 4.720033 14.966517 -6.856538 -4.350686 -8.303696 -0.523239 6.919787 -7.544313 -4.723204 -5.393839 35.182301 3.476317 0.688377 0.180244 -0.013608 3.147140 
-18.316071 48.815605 57.076023 0.306195 8.622926 119.343735 0.000000 0.000000 0.000000 19.716574 -1.746758 2.381927 19.068211 -0.158864 -0.159005 21.894773 -0.342146 -0.608225 3.302845 -10.848180 18.795649 -52.500740 -28.203077 22.064501 -54.746605 -2.959483 21.661848 5.583452 -1.584410 -3.664659 1.410523 18.716736 18.903496 47.064453 -8.964776 16.859266 49.123466 8.122598 19.895420 -4.100825 0.123905 -3.576101 4.343111 4.763238 4.782520 15.932528 -6.700211 -4.641129 -9.626539 -0.605882 7.013322 -8.980613 -4.070333 -5.138712 29.740433 4.569415 0.100090 1.793338 -0.003717 0.860434 
